<?xml version="1.0" encoding="utf-8"?><!DOCTYPE svg PUBLIC "-//W3C//DTD SVG 1.1//EN" "http://www.w3.org/Graphics/SVG/1.1/DTD/svg11.dtd"><svg xmlns="http://www.w3.org/2000/svg" viewBox="0 0 49 49" shape-rendering="crispEdges"><path fill="#ffffff" d="M0 0h49v49H0z"/><path stroke="#000000" d="M0 0.5h7m4 0h2m1 0h3m1 0h7m1 0h1m4 0h2m2 0h1m1 0h1m2 0h1m1 0h7M0 1.5h1m5 0h1m2 0h2m2 0h1m1 0h1m1 0h3m2 0h1m1 0h2m1 0h2m1 0h1m7 0h3m1 0h1m5 0h1M0 2.5h1m1 0h3m1 0h1m3 0h2m1 0h1m2 0h2m1 0h1m1 0h3m4 0h2m1 0h2m1 0h4m1 0h2m1 0h1m1 0h3m1 0h1M0 3.5h1m1 0h3m1 0h1m2 0h1m1 0h2m2 0h1m1 0h1m3 0h6m2 0h2m2 0h5m1 0h1m2 0h1m1 0h3m1 0h1M0 4.5h1m1 0h3m1 0h1m3 0h4m5 0h2m1 0h11m1 0h4m4 0h1m1 0h3m1 0h1M0 5.5h1m5 0h1m1 0h2m1 0h1m3 0h2m1 0h1m1 0h1m1 0h1m3 0h3m2 0h1m1 0h1m3 0h2m3 0h1m5 0h1M0 6.5h7m1 0h1m1 0h1m1 0h1m1 0h1m1 0h1m1 0h1m1 0h1m1 0h1m1 0h1m1 0h1m1 0h1m1 0h1m1 0h1m1 0h1m1 0h1m1 0h1m1 0h1m1 0h7M10 7.5h1m4 0h1m1 0h2m3 0h1m3 0h2m2 0h1m2 0h1m2 0h1m1 0h3M0 8.5h1m2 0h1m1 0h2m1 0h2m2 0h1m1 0h1m1 0h2m1 0h2m1 0h10m1 0h1m1 0h5m1 0h1m1 0h1M2 9.5h1m4 0h1m2 0h1m1 0h2m2 0h1m2 0h1m3 0h1m5 0h1m3 0h1m2 0h1m2 0h4m1 0h2m1 0h2M0 10.5h2m1 0h1m1 0h3m1 0h1m3 0h1m1 0h2m1 0h4m2 0h1m1 0h1m2 0h1m1 0h1m3 0h1m1 0h2m2 0h1m2 0h5M2 11.5h3m6 0h2m1 0h2m1 0h1m2 0h2m7 0h1m1 0h4m2 0h3m2 0h3m2 0h1M1 12.5h1m2 0h1m1 0h1m1 0h1m2 0h1m1 0h2m1 0h2m2 0h1m3 0h5m1 0h1m1 0h1m1 0h3m1 0h7m2 0h1M1 13.5h1m1 0h1m1 0h1m1 0h1m3 0h11m3 0h1m2 0h1m4 0h2m1 0h1m2 0h2m1 0h1m2 0h1M2 14.5h1m3 0h2m2 0h1m2 0h3m4 0h3m1 0h1m3 0h1m1 0h1m3 0h2m2 0h2m2 0h2m2 0h1M0 15.5h2m3 0h1m1 0h2m1 0h1m1 0h1m2 0h4m1 0h2m2 0h2m1 0h2m3 0h1m3 0h1m2 0h2m3 0h2m2 0h1M1 16.5h1m2 0h3m3 0h1m2 0h2m1 0h3m3 0h3m1 0h1m2 0h1m1 0h3m2 0h2m1 0h2m3 0h4M0 17.5h1m1 0h2m4 0h2m1 0h1m1 0h1m4 0h3m2 0h1m4 0h1m1 0h1m2 0h5m1 0h1m1 0h1m5 0h2M3 18.5h2m1 0h6m1 0h2m3 0h5m2 0h5m1 0h3m3 0h3m3 0h1m1 0h2m1 0h1M0 19.5h1m1 0h2m1 0h1m1 0h1m3 0h6m2 0h2m1 0h1m1 0h3m3 0h2m2 0h1m3 0h1m1 0h1m2 0h2m2 0h2M1 20.5h3m2 0h1m3 0h1m5 0h1m3 0h6m1 0h1m1 0h1m2 0h1m3 0h1m3 0h1m1 0h3m1 0h2M2 21.5h1m2 0h1m1 0h1m7 0h1m6 0h2m1 0h1m1 0h3m1 0h2m1 0h2m1 0h1m6 0h2m1 0h2M3 22.5h6m3 0h2m6 0h8m1 0h1m1 0h1m2 0h1m1 0h1m1 0h1m1 0h6m1 0h2M0 23.5h1m3 0h1m3 0h1m1 0h3m1 0h7m1 0h1m3 0h3m1 0h5m1 0h1m2 0h2m3 0h1m3 0h1M1 24.5h1m1 0h2m1 0h1m1 0h1m2 0h1m1 0h2m3 0h2m2 0h1m1 0h1m1 0h3m2 0h2m2 0h4m1 0h1m1 0h1m1 0h2m1 0h1M0 25.5h2m2 0h1m3 0h2m1 0h2m3 0h2m4 0h1m3 0h2m3 0h1m2 0h1m1 0h2m1 0h2m3 0h1m2 0h1M0 26.5h1m2 0h9m2 0h1m3 0h2m1 0h6m1 0h2m4 0h2m2 0h8m2 0h1M3 27.5h1m3 0h1m2 0h2m1 0h2m5 0h1m4 0h3m3 0h1m2 0h1m3 0h1m2 0h1m1 0h2m2 0h2M3 28.5h6m1 0h4m1 0h1m1 0h1m1 0h3m3 0h3m4 0h1m2 0h1m2 0h1m1 0h3m1 0h1m1 0h1M1 29.5h4m3 0h1m2 0h3m2 0h1m1 0h3m3 0h1m2 0h1m3 0h3m2 0h1m1 0h2m1 0h3m1 0h3M2 30.5h1m1 0h5m3 0h2m2 0h1m3 0h7m4 0h7m1 0h2m2 0h1m1 0h2M0 31.5h1m4 0h1m2 0h2m1 0h3m1 0h1m1 0h1m3 0h3m3 0h1m3 0h1m1 0h1m2 0h2m2 0h1m1 0h2m1 0h1M0 32.5h5m1 0h1m4 0h1m2 0h3m2 0h1m1 0h2m1 0h1m4 0h1m2 0h4m1 0h2m1 0h1m2 0h1m1 0h2m1 0h1M1 33.5h5m1 0h1m1 0h4m1 0h2m3 0h1m1 0h1m1 0h1m1 0h1m1 0h7m1 0h1m1 0h1m10 0h1M0 34.5h1m1 0h1m1 0h6m1 0h7m1 0h1m6 0h1m3 0h1m1 0h5m2 0h1m2 0h2m1 0h1m2 0h1M0 35.5h3m2 0h1m7 0h1m6 0h2m2 0h2m4 0h4m4 0h2m1 0h3m1 0h1m2 0h1M0 36.5h1m3 0h1m1 0h5m1 0h1m4 0h2m7 0h1m2 0h1m7 0h1m1 0h2m5 0h1M0 37.5h1m2 0h1m1 0h1m1 0h1m1 0h1m3 0h2m4 0h1m1 0h2m2 0h1m10 0h2m1 0h1m3 0h1m1 0h4M1 38.5h1m3 0h2m2 0h1m3 0h1m1 0h2m1 0h1m1 0h1m4 0h6m1 0h1m1 0h2m2 0h1m1 0h1m2 0h2m2 0h2M1 39.5h3m3 0h1m1 0h4m6 0h1m3 0h1m1 0h1m2 0h1m1 0h2m3 0h3m1 0h1m1 0h1m1 0h2M0 40.5h3m3 0h1m1 0h1m2 0h3m2 0h2m1 0h1m2 0h6m1 0h1m2 0h2m1 0h2m1 0h1m1 0h5m1 0h2M8 41.5h1m1 0h4m1 0h1m1 0h4m1 0h1m3 0h1m1 0h2m2 0h1m3 0h1m1 0h1m1 0h1m3 0h1m1 0h3M0 42.5h7m2 0h1m1 0h2m2 0h1m2 0h1m2 0h2m1 0h1m1 0h1m4 0h1m2 0h1m1 0h2m2 0h1m1 0h1m1 0h3m1 0h1M0 43.5h1m5 0h1m1 0h1m2 0h6m1 0h2m1 0h2m3 0h4m4 0h5m1 0h1m3 0h4M0 44.5h1m1 0h3m1 0h1m2 0h1m1 0h1m2 0h2m5 0h10m3 0h1m1 0h2m2 0h5m1 0h2M0 45.5h1m1 0h3m1 0h1m1 0h2m4 0h3m1 0h2m2 0h1m2 0h2m1 0h1m2 0h1m1 0h3m1 0h2m1 0h1m1 0h3m1 0h2M0 46.5h1m1 0h3m1 0h1m2 0h1m3 0h1m6 0h1m1 0h3m7 0h1m1 0h1m1 0h1m1 0h1m1 0h1m1 0h1m2 0h1m2 0h1M0 47.5h1m5 0h1m5 0h4m1 0h2m1 0h1m2 0h1m1 0h5m3 0h1m1 0h4m5 0h2m2 0h1M0 48.5h7m1 0h1m1 0h1m1 0h2m1 0h1m6 0h3m3 0h3m3 0h1m2 0h5m1 0h1m1 0h2m1 0h1"/></svg>
