<?xml version="1.0" encoding="utf-8"?><!DOCTYPE svg PUBLIC "-//W3C//DTD SVG 1.1//EN" "http://www.w3.org/Graphics/SVG/1.1/DTD/svg11.dtd"><svg xmlns="http://www.w3.org/2000/svg" viewBox="0 0 85 85" shape-rendering="crispEdges"><path fill="#ffffff" d="M0 0h85v85H0z"/><path stroke="#000000" d="M4 4.5h7m1 0h4m4 0h2m6 0h1m3 0h3m3 0h2m3 0h1m2 0h4m1 0h1m1 0h3m1 0h1m1 0h1m1 0h5m3 0h1m4 0h7M4 5.5h1m5 0h1m4 0h2m1 0h2m2 0h3m1 0h5m2 0h1m5 0h2m2 0h2m1 0h2m1 0h9m2 0h4m1 0h1m2 0h3m1 0h1m1 0h1m5 0h1M4 6.5h1m1 0h3m1 0h1m1 0h1m2 0h2m1 0h3m1 0h2m5 0h1m1 0h2m5 0h2m2 0h1m1 0h6m1 0h2m1 0h8m2 0h1m1 0h2m4 0h1m1 0h1m1 0h3m1 0h1M4 7.5h1m1 0h3m1 0h1m3 0h3m1 0h7m1 0h1m1 0h1m2 0h3m1 0h1m9 0h2m1 0h2m3 0h1m1 0h2m1 0h2m2 0h1m1 0h1m7 0h1m1 0h1m1 0h3m1 0h1M4 8.5h1m1 0h3m1 0h1m2 0h2m1 0h4m1 0h1m1 0h3m2 0h6m1 0h1m1 0h1m1 0h2m1 0h1m1 0h2m1 0h8m3 0h1m1 0h1m1 0h2m3 0h1m1 0h4m1 0h1m1 0h3m1 0h1M4 9.5h1m5 0h1m1 0h4m1 0h1m3 0h1m2 0h3m1 0h1m3 0h1m1 0h2m1 0h5m1 0h2m2 0h1m2 0h1m3 0h5m3 0h1m1 0h2m2 0h1m1 0h1m3 0h1m5 0h1M4 10.5h7m1 0h1m1 0h1m1 0h1m1 0h1m1 0h1m1 0h1m1 0h1m1 0h1m1 0h1m1 0h1m1 0h1m1 0h1m1 0h1m1 0h1m1 0h1m1 0h1m1 0h1m1 0h1m1 0h1m1 0h1m1 0h1m1 0h1m1 0h1m1 0h1m1 0h1m1 0h1m1 0h1m1 0h1m1 0h1m1 0h1m1 0h1m1 0h7M14 11.5h9m1 0h3m1 0h1m3 0h1m4 0h3m1 0h1m2 0h2m3 0h2m3 0h2m4 0h1m2 0h1m2 0h3m1 0h1m1 0h1M4 12.5h1m1 0h1m3 0h2m1 0h2m4 0h1m2 0h1m3 0h7m1 0h1m2 0h1m1 0h1m1 0h17m1 0h2m2 0h1m1 0h2m1 0h2m1 0h1m3 0h1m2 0h1m1 0h1M4 13.5h2m2 0h1m2 0h6m6 0h1m1 0h1m1 0h1m2 0h2m1 0h1m3 0h7m1 0h1m1 0h1m1 0h3m3 0h1m3 0h2m2 0h1m1 0h6m3 0h7M4 14.5h1m2 0h1m1 0h2m3 0h4m3 0h1m1 0h7m3 0h2m1 0h4m2 0h1m3 0h1m1 0h1m3 0h1m1 0h3m1 0h1m3 0h1m1 0h2m1 0h1m3 0h2m1 0h4m2 0h1M4 15.5h1m1 0h2m1 0h1m3 0h1m2 0h1m2 0h1m1 0h6m3 0h1m1 0h1m4 0h1m1 0h1m1 0h1m2 0h1m1 0h3m4 0h1m4 0h1m3 0h2m2 0h1m7 0h1m3 0h3M5 16.5h1m1 0h4m1 0h1m1 0h2m1 0h2m1 0h1m3 0h2m2 0h1m1 0h1m1 0h1m1 0h1m3 0h1m1 0h1m2 0h2m1 0h5m2 0h1m2 0h2m3 0h2m2 0h2m2 0h4m1 0h1m2 0h4M6 17.5h1m6 0h2m3 0h3m2 0h1m2 0h1m2 0h1m2 0h1m3 0h2m2 0h1m2 0h1m2 0h1m1 0h1m1 0h3m1 0h2m3 0h2m3 0h1m1 0h1m6 0h1m3 0h4M4 18.5h2m2 0h6m1 0h1m1 0h2m2 0h1m1 0h1m1 0h3m2 0h3m1 0h5m1 0h4m1 0h3m1 0h2m1 0h1m1 0h1m2 0h6m1 0h3m2 0h1m2 0h1m2 0h1m3 0h1M5 19.5h1m1 0h1m1 0h1m1 0h2m4 0h1m2 0h1m1 0h2m1 0h2m2 0h1m3 0h2m2 0h1m1 0h1m1 0h1m1 0h2m5 0h3m3 0h1m1 0h2m1 0h1m1 0h2m2 0h1m3 0h1m4 0h1m1 0h3M7 20.5h1m2 0h1m1 0h1m1 0h1m1 0h2m1 0h5m1 0h2m2 0h3m1 0h1m2 0h2m4 0h1m1 0h1m3 0h4m2 0h1m1 0h1m3 0h1m1 0h4m2 0h2m1 0h1m2 0h3M5 21.5h1m2 0h2m1 0h2m1 0h1m1 0h2m1 0h2m4 0h4m1 0h1m2 0h2m2 0h4m1 0h2m2 0h1m1 0h2m2 0h1m1 0h4m1 0h1m1 0h1m1 0h4m2 0h2m1 0h1m1 0h4M5 22.5h1m2 0h3m1 0h2m4 0h2m1 0h2m5 0h1m2 0h4m4 0h2m1 0h5m3 0h2m1 0h3m2 0h1m1 0h3m1 0h2m1 0h1m2 0h2m1 0h1m2 0h1m2 0h2M6 23.5h3m2 0h1m3 0h1m5 0h1m1 0h2m2 0h1m1 0h1m1 0h2m1 0h1m2 0h1m8 0h1m1 0h1m3 0h1m3 0h3m3 0h1m1 0h1m2 0h2m1 0h1m1 0h3m1 0h1m1 0h1m1 0h1M5 24.5h1m1 0h2m1 0h1m1 0h1m1 0h7m2 0h2m1 0h2m2 0h1m4 0h1m1 0h3m2 0h4m1 0h3m1 0h3m1 0h4m1 0h4m2 0h3m3 0h3m1 0h1m2 0h2M5 25.5h2m1 0h2m1 0h5m2 0h3m1 0h1m4 0h3m1 0h3m1 0h4m2 0h2m4 0h3m2 0h1m1 0h1m1 0h2m1 0h1m2 0h1m1 0h1m2 0h2m1 0h8m2 0h1M4 26.5h3m1 0h1m1 0h2m1 0h1m1 0h1m2 0h1m5 0h2m1 0h1m1 0h1m1 0h1m1 0h4m3 0h2m2 0h4m3 0h1m2 0h3m1 0h1m2 0h2m1 0h3m1 0h2m2 0h1m1 0h2M7 27.5h3m1 0h3m2 0h4m1 0h3m2 0h3m2 0h1m1 0h1m1 0h1m1 0h1m1 0h2m1 0h1m2 0h2m1 0h1m3 0h1m1 0h2m3 0h4m2 0h1m1 0h2m3 0h3m2 0h2M5 28.5h9m1 0h1m2 0h1m1 0h3m1 0h2m1 0h6m2 0h5m2 0h1m1 0h4m1 0h7m1 0h2m1 0h1m2 0h4m1 0h1m2 0h6m3 0h1M4 29.5h2m1 0h2m3 0h2m1 0h3m1 0h1m1 0h1m2 0h2m1 0h2m3 0h2m1 0h1m4 0h2m1 0h1m3 0h4m3 0h1m1 0h6m1 0h1m2 0h3m2 0h2m3 0h2m1 0h2M4 30.5h2m1 0h2m1 0h1m1 0h1m4 0h1m1 0h2m1 0h7m1 0h1m1 0h5m3 0h1m3 0h2m1 0h2m1 0h1m1 0h1m1 0h3m2 0h6m1 0h1m2 0h2m1 0h1m1 0h1m1 0h2m1 0h1M7 31.5h2m3 0h3m1 0h3m7 0h1m1 0h1m3 0h2m1 0h3m1 0h1m1 0h3m2 0h1m1 0h3m3 0h3m4 0h1m4 0h1m1 0h1m1 0h1m1 0h1m3 0h1m2 0h2M7 32.5h6m1 0h1m2 0h2m3 0h1m5 0h8m1 0h2m1 0h1m1 0h2m1 0h1m1 0h1m2 0h5m1 0h3m1 0h1m1 0h1m1 0h5m1 0h7m1 0h3M5 33.5h1m1 0h3m4 0h2m1 0h2m4 0h3m1 0h1m1 0h1m1 0h2m3 0h2m1 0h1m1 0h4m4 0h1m4 0h2m4 0h1m4 0h1m3 0h3m1 0h1m1 0h1m1 0h1m1 0h1M4 34.5h9m1 0h1m3 0h1m1 0h2m1 0h1m1 0h1m1 0h2m1 0h1m2 0h3m2 0h1m1 0h3m1 0h1m2 0h1m2 0h1m2 0h1m1 0h1m1 0h3m2 0h1m1 0h1m1 0h1m1 0h1m1 0h1m2 0h1m2 0h3M6 35.5h1m1 0h1m3 0h1m1 0h1m1 0h2m1 0h3m2 0h1m2 0h1m3 0h3m2 0h1m2 0h1m1 0h2m1 0h1m4 0h1m4 0h1m2 0h3m7 0h2m1 0h2m1 0h2m1 0h3M4 36.5h1m1 0h1m2 0h2m2 0h1m1 0h1m3 0h1m1 0h1m1 0h1m1 0h1m2 0h2m2 0h1m6 0h3m1 0h1m1 0h2m1 0h1m1 0h2m1 0h5m3 0h1m1 0h2m2 0h2m1 0h2m3 0h2m1 0h1m1 0h1M6 37.5h2m4 0h1m1 0h2m3 0h1m1 0h3m1 0h1m1 0h1m4 0h1m2 0h1m3 0h1m1 0h4m2 0h1m5 0h1m1 0h1m3 0h1m1 0h1m2 0h1m1 0h2m1 0h5m1 0h3m2 0h1M4 38.5h1m2 0h1m1 0h3m2 0h1m3 0h1m2 0h1m1 0h1m1 0h2m3 0h1m1 0h1m3 0h11m1 0h1m1 0h1m1 0h1m1 0h2m2 0h2m2 0h2m3 0h1m2 0h1m2 0h1m2 0h1m1 0h1m1 0h1M4 39.5h2m1 0h1m9 0h2m1 0h1m2 0h2m1 0h7m3 0h6m1 0h3m1 0h1m2 0h6m1 0h1m1 0h2m1 0h1m5 0h1m5 0h4m1 0h1M4 40.5h1m2 0h1m2 0h2m3 0h2m2 0h1m3 0h2m1 0h2m6 0h6m3 0h4m4 0h2m1 0h1m1 0h1m3 0h2m2 0h2m3 0h1m2 0h1m2 0h1m1 0h4M4 41.5h2m1 0h1m1 0h1m1 0h5m3 0h2m3 0h1m3 0h5m4 0h4m1 0h2m4 0h2m2 0h2m2 0h2m2 0h1m1 0h1m1 0h2m1 0h2m3 0h2m2 0h1m2 0h2M4 42.5h1m1 0h1m1 0h1m1 0h1m2 0h2m1 0h1m1 0h6m1 0h1m6 0h1m1 0h1m2 0h1m1 0h2m1 0h1m1 0h1m1 0h3m1 0h1m1 0h2m1 0h2m1 0h3m1 0h4m1 0h1m1 0h6m1 0h4M9 43.5h1m1 0h1m3 0h1m2 0h3m6 0h1m2 0h1m1 0h7m1 0h1m2 0h1m5 0h3m1 0h1m2 0h1m5 0h1m1 0h1m1 0h2m3 0h1m1 0h2m2 0h3M5 44.5h1m2 0h4m2 0h1m4 0h3m2 0h2m1 0h1m1 0h1m1 0h1m4 0h3m1 0h1m1 0h4m2 0h2m2 0h3m3 0h1m2 0h4m3 0h1m1 0h2m1 0h1m2 0h1m2 0h2M5 45.5h2m1 0h1m4 0h1m3 0h2m2 0h3m3 0h2m1 0h1m3 0h2m3 0h1m3 0h1m1 0h3m2 0h2m4 0h2m1 0h3m2 0h1m2 0h3m1 0h2m1 0h2m1 0h1m2 0h1M4 46.5h7m3 0h1m1 0h1m1 0h5m1 0h3m2 0h3m2 0h2m1 0h1m4 0h3m1 0h1m1 0h3m1 0h2m1 0h1m2 0h3m1 0h1m2 0h4m1 0h2m3 0h4M4 47.5h1m1 0h1m1 0h2m6 0h1m1 0h1m1 0h2m3 0h2m1 0h1m1 0h3m1 0h1m3 0h1m2 0h1m1 0h1m3 0h8m4 0h1m4 0h4m1 0h1m1 0h2m2 0h2m2 0h2M6 48.5h1m3 0h1m2 0h5m2 0h1m1 0h2m1 0h1m4 0h2m1 0h1m1 0h3m1 0h1m2 0h2m3 0h2m1 0h2m2 0h1m3 0h3m1 0h5m1 0h1m1 0h1m1 0h2m1 0h1m2 0h3M4 49.5h1m1 0h1m1 0h1m2 0h1m2 0h1m1 0h9m1 0h1m5 0h2m6 0h2m1 0h1m2 0h1m4 0h1m2 0h1m1 0h3m2 0h2m1 0h1m5 0h2m3 0h2m1 0h1M5 50.5h8m3 0h5m2 0h1m1 0h2m1 0h5m1 0h2m5 0h3m4 0h7m1 0h1m1 0h1m1 0h1m1 0h2m1 0h3m4 0h5m2 0h2M4 51.5h2m2 0h1m3 0h1m2 0h4m1 0h1m1 0h1m1 0h1m1 0h3m3 0h2m5 0h1m1 0h1m2 0h2m3 0h2m3 0h2m3 0h2m1 0h2m1 0h1m1 0h1m1 0h4m3 0h2m1 0h1M5 52.5h1m2 0h1m1 0h1m1 0h2m1 0h3m1 0h2m2 0h1m1 0h1m2 0h1m1 0h1m1 0h2m4 0h1m1 0h2m2 0h5m1 0h1m1 0h1m1 0h1m1 0h2m2 0h1m5 0h1m1 0h1m3 0h1m1 0h1m1 0h1m1 0h1M4 53.5h1m1 0h1m1 0h1m3 0h2m3 0h3m1 0h1m1 0h2m3 0h1m3 0h3m4 0h2m4 0h2m1 0h3m3 0h2m1 0h1m2 0h2m1 0h2m2 0h3m2 0h1m3 0h5M5 54.5h1m2 0h5m1 0h3m1 0h1m1 0h1m1 0h3m2 0h6m3 0h1m1 0h2m2 0h1m2 0h10m1 0h3m2 0h3m1 0h4m3 0h6m1 0h1M4 55.5h3m2 0h1m1 0h1m3 0h1m1 0h5m1 0h1m2 0h1m1 0h2m3 0h3m1 0h1m1 0h3m2 0h1m1 0h5m2 0h1m1 0h2m3 0h1m1 0h1m3 0h1m8 0h1m2 0h3M5 56.5h1m1 0h7m2 0h1m1 0h1m1 0h1m4 0h1m1 0h1m1 0h3m4 0h6m1 0h1m2 0h3m1 0h6m1 0h1m3 0h2m1 0h6m3 0h7M4 57.5h1m3 0h2m1 0h3m2 0h2m5 0h1m1 0h1m2 0h1m2 0h1m5 0h1m1 0h3m1 0h2m1 0h1m3 0h1m2 0h1m1 0h2m1 0h1m2 0h2m1 0h2m5 0h2m2 0h1m1 0h1m2 0h1M9 58.5h2m2 0h4m1 0h1m1 0h1m2 0h2m1 0h1m3 0h1m5 0h2m1 0h1m2 0h1m1 0h3m1 0h1m2 0h3m1 0h1m2 0h3m3 0h1m2 0h1m3 0h1m1 0h1m1 0h2m1 0h1m1 0h1M5 59.5h4m2 0h5m1 0h2m2 0h2m1 0h7m1 0h4m1 0h1m1 0h1m1 0h1m1 0h1m4 0h3m1 0h3m4 0h1m4 0h4m2 0h1m2 0h3m3 0h1M4 60.5h1m2 0h1m1 0h2m2 0h3m2 0h4m1 0h1m3 0h2m1 0h1m1 0h4m4 0h1m1 0h1m5 0h1m1 0h1m4 0h2m2 0h2m1 0h1m2 0h1m2 0h1m2 0h2m1 0h6M4 61.5h5m2 0h2m5 0h1m2 0h1m1 0h2m4 0h1m1 0h1m2 0h1m1 0h2m5 0h1m2 0h2m2 0h1m4 0h2m1 0h2m1 0h1m2 0h1m1 0h6m2 0h1m2 0h1M4 62.5h1m1 0h3m1 0h1m1 0h1m1 0h2m2 0h2m1 0h4m1 0h1m1 0h1m2 0h1m1 0h2m1 0h2m2 0h4m2 0h1m2 0h1m2 0h2m1 0h1m2 0h1m1 0h3m1 0h1m1 0h2m2 0h3m1 0h2m1 0h1M4 63.5h1m1 0h2m3 0h7m2 0h5m1 0h4m2 0h1m2 0h1m1 0h1m1 0h1m1 0h2m3 0h1m2 0h1m5 0h1m1 0h1m2 0h1m1 0h3m2 0h5m1 0h4m1 0h1m1 0h1M5 64.5h2m1 0h1m1 0h1m2 0h4m3 0h1m1 0h1m1 0h2m2 0h1m1 0h1m6 0h2m2 0h3m1 0h3m3 0h2m1 0h2m1 0h3m1 0h2m2 0h5m4 0h1m1 0h1m1 0h3M5 65.5h1m2 0h1m2 0h1m1 0h1m1 0h3m1 0h1m1 0h1m3 0h2m1 0h2m2 0h2m2 0h6m1 0h1m2 0h1m1 0h1m2 0h1m1 0h2m1 0h3m3 0h2m3 0h2m1 0h1m1 0h1m3 0h2m1 0h1M4 66.5h1m1 0h1m1 0h1m1 0h3m1 0h1m1 0h1m4 0h4m1 0h1m1 0h9m1 0h3m1 0h1m1 0h2m1 0h1m1 0h1m4 0h2m1 0h4m3 0h6m1 0h2m1 0h1m3 0h2M6 67.5h2m1 0h1m1 0h2m4 0h4m2 0h1m1 0h2m1 0h2m1 0h3m3 0h1m2 0h1m1 0h5m1 0h2m1 0h1m2 0h1m2 0h1m1 0h4m1 0h1m1 0h3m3 0h3m1 0h2M4 68.5h1m2 0h1m2 0h6m1 0h3m3 0h2m3 0h2m1 0h3m3 0h4m2 0h1m2 0h2m1 0h4m1 0h3m1 0h2m1 0h1m1 0h3m2 0h1m2 0h1m2 0h1m1 0h1m3 0h1M6 69.5h1m2 0h1m2 0h1m1 0h1m1 0h1m4 0h1m3 0h1m2 0h1m3 0h2m2 0h2m1 0h3m1 0h2m1 0h4m1 0h2m3 0h2m1 0h2m2 0h1m1 0h4m1 0h4m3 0h1m1 0h2M5 70.5h1m2 0h3m1 0h1m1 0h1m1 0h2m2 0h2m4 0h1m4 0h1m6 0h1m1 0h1m2 0h3m1 0h2m2 0h1m1 0h3m2 0h2m2 0h1m3 0h1m1 0h1m1 0h1m1 0h3m1 0h1m3 0h1M8 71.5h1m2 0h1m2 0h2m1 0h1m9 0h1m3 0h2m2 0h3m1 0h1m1 0h2m3 0h1m1 0h2m2 0h2m1 0h1m3 0h1m1 0h1m4 0h3m2 0h2m2 0h2M5 72.5h4m1 0h2m1 0h1m3 0h3m3 0h1m1 0h1m2 0h5m2 0h4m2 0h1m2 0h3m1 0h1m1 0h6m1 0h5m1 0h1m1 0h1m1 0h1m2 0h8m1 0h1M12 73.5h5m2 0h2m4 0h2m1 0h1m3 0h1m1 0h1m4 0h3m1 0h2m5 0h1m3 0h2m2 0h1m1 0h2m2 0h1m1 0h2m1 0h2m1 0h1m3 0h2m2 0h1M4 74.5h7m1 0h3m2 0h1m1 0h2m2 0h1m1 0h4m1 0h1m1 0h2m2 0h6m2 0h1m2 0h1m2 0h1m1 0h1m1 0h7m1 0h2m6 0h3m1 0h1m1 0h2m1 0h1M4 75.5h1m5 0h1m2 0h4m8 0h1m1 0h2m3 0h1m3 0h1m1 0h1m2 0h2m2 0h2m1 0h1m1 0h1m3 0h2m1 0h4m3 0h1m5 0h1m1 0h1m3 0h1m2 0h2M4 76.5h1m1 0h3m1 0h1m2 0h1m2 0h1m3 0h1m1 0h1m1 0h1m3 0h8m6 0h2m1 0h1m1 0h1m2 0h6m1 0h1m2 0h3m1 0h1m3 0h1m2 0h6m1 0h3M4 77.5h1m1 0h3m1 0h1m2 0h4m3 0h1m1 0h2m1 0h3m3 0h2m2 0h1m1 0h1m2 0h7m2 0h1m1 0h3m1 0h4m1 0h6m1 0h1m1 0h1m2 0h1m1 0h1m1 0h2M4 78.5h1m1 0h3m1 0h1m1 0h1m1 0h3m1 0h1m1 0h2m1 0h4m2 0h1m1 0h2m1 0h1m2 0h1m3 0h1m1 0h6m1 0h1m1 0h4m2 0h2m1 0h3m1 0h2m4 0h2m2 0h6M4 79.5h1m5 0h1m6 0h1m2 0h1m1 0h2m2 0h1m1 0h1m8 0h5m2 0h2m2 0h2m2 0h1m1 0h2m6 0h1m3 0h1m1 0h1m1 0h3m1 0h1m1 0h2m2 0h1M4 80.5h7m1 0h2m1 0h3m5 0h1m4 0h1m2 0h1m4 0h2m1 0h1m3 0h2m1 0h1m1 0h4m1 0h2m3 0h1m1 0h2m1 0h3m2 0h1m1 0h1m2 0h1m2 0h1m1 0h3"/></svg>
