<?xml version="1.0" encoding="utf-8"?><!DOCTYPE svg PUBLIC "-//W3C//DTD SVG 1.1//EN" "http://www.w3.org/Graphics/SVG/1.1/DTD/svg11.dtd"><svg xmlns="http://www.w3.org/2000/svg" viewBox="0 0 49 49" shape-rendering="crispEdges"><path fill="#ffffff" d="M0 0h49v49H0z"/><path stroke="#000000" d="M0 0.5h7m1 0h5m5 0h2m3 0h2m2 0h2m2 0h1m1 0h3m1 0h1m2 0h1m1 0h7M0 1.5h1m5 0h1m1 0h1m4 0h2m1 0h6m2 0h3m3 0h1m1 0h3m3 0h3m1 0h1m5 0h1M0 2.5h1m1 0h3m1 0h1m3 0h1m1 0h1m3 0h1m1 0h1m2 0h2m1 0h2m4 0h2m2 0h2m3 0h2m1 0h1m1 0h3m1 0h1M0 3.5h1m1 0h3m1 0h1m1 0h2m3 0h1m1 0h1m2 0h2m1 0h2m3 0h1m1 0h1m4 0h4m2 0h1m2 0h1m1 0h3m1 0h1M0 4.5h1m1 0h3m1 0h1m3 0h1m6 0h2m1 0h1m1 0h5m1 0h1m2 0h1m2 0h1m7 0h1m1 0h3m1 0h1M0 5.5h1m5 0h1m2 0h3m1 0h1m4 0h1m2 0h2m3 0h3m2 0h1m2 0h2m1 0h2m3 0h1m5 0h1M0 6.5h7m1 0h1m1 0h1m1 0h1m1 0h1m1 0h1m1 0h1m1 0h1m1 0h1m1 0h1m1 0h1m1 0h1m1 0h1m1 0h1m1 0h1m1 0h1m1 0h1m1 0h1m1 0h7M8 7.5h1m4 0h2m1 0h3m1 0h3m3 0h1m1 0h1m1 0h1m1 0h1m1 0h1m1 0h1M0 8.5h1m1 0h2m1 0h3m4 0h1m2 0h1m1 0h2m1 0h1m1 0h7m4 0h1m4 0h2m2 0h1m2 0h1m1 0h2M0 9.5h3m2 0h1m3 0h2m1 0h4m8 0h2m4 0h2m1 0h1m1 0h1m1 0h1m1 0h2m2 0h3M3 10.5h1m2 0h1m2 0h1m1 0h2m3 0h2m2 0h2m1 0h1m1 0h2m3 0h1m5 0h1m1 0h1m3 0h5M7 11.5h4m4 0h1m1 0h1m4 0h1m3 0h6m5 0h1m2 0h1m1 0h2m1 0h3M1 12.5h3m2 0h6m1 0h1m1 0h1m1 0h1m3 0h2m1 0h2m9 0h2m4 0h3m1 0h3M1 13.5h2m1 0h2m1 0h1m1 0h5m3 0h3m2 0h1m2 0h3m1 0h2m1 0h1m3 0h1m1 0h1m3 0h1m1 0h1m1 0h1M2 14.5h1m2 0h3m2 0h3m1 0h2m1 0h7m1 0h1m2 0h1m2 0h1m2 0h1m1 0h1m1 0h2m1 0h1m4 0h3M0 15.5h2m6 0h1m1 0h2m1 0h1m1 0h2m2 0h3m1 0h1m3 0h6m2 0h1m1 0h1m1 0h7m1 0h1M0 16.5h3m1 0h1m1 0h2m2 0h3m1 0h1m1 0h1m2 0h1m2 0h1m3 0h1m3 0h1m1 0h2m1 0h1m3 0h8m1 0h1M3 17.5h2m5 0h2m1 0h4m1 0h2m1 0h3m1 0h1m1 0h1m2 0h1m1 0h1m2 0h4m1 0h2m2 0h5M3 18.5h1m2 0h2m3 0h1m1 0h1m1 0h2m1 0h2m5 0h1m3 0h1m1 0h1m2 0h1m2 0h1m2 0h1m2 0h2m3 0h1M0 19.5h1m2 0h1m3 0h7m5 0h1m1 0h1m2 0h2m2 0h1m1 0h4m1 0h1m3 0h1m3 0h1m1 0h4M0 20.5h1m1 0h6m2 0h4m2 0h7m4 0h2m1 0h1m4 0h3m2 0h2m2 0h1m1 0h1m1 0h1M0 21.5h3m1 0h2m5 0h3m1 0h1m1 0h3m2 0h1m1 0h1m3 0h1m1 0h2m2 0h1m1 0h1m4 0h5M0 22.5h2m1 0h6m2 0h1m1 0h2m4 0h10m1 0h1m1 0h1m1 0h2m1 0h2m1 0h6M0 23.5h1m1 0h3m3 0h5m6 0h1m1 0h2m3 0h1m3 0h2m4 0h1m1 0h1m1 0h1m3 0h3m1 0h1M1 24.5h2m1 0h1m1 0h1m1 0h1m3 0h2m1 0h1m1 0h1m1 0h4m1 0h1m1 0h1m4 0h1m1 0h5m1 0h2m1 0h1m1 0h1m1 0h2M0 25.5h5m3 0h1m1 0h3m2 0h1m4 0h3m3 0h1m1 0h1m2 0h3m2 0h3m1 0h1m3 0h4M1 26.5h1m1 0h8m1 0h3m1 0h2m3 0h6m1 0h1m1 0h2m2 0h1m1 0h10m1 0h1M0 27.5h2m1 0h1m1 0h1m4 0h1m3 0h1m1 0h5m2 0h2m1 0h2m5 0h1m1 0h2m5 0h1m1 0h1M0 28.5h2m1 0h2m1 0h1m1 0h1m1 0h1m4 0h1m2 0h1m1 0h2m1 0h2m1 0h2m1 0h5m2 0h2m2 0h1m2 0h2m1 0h3M1 29.5h1m7 0h7m2 0h2m1 0h2m1 0h1m1 0h1m1 0h4m4 0h1m1 0h1m1 0h5m2 0h1M1 30.5h1m1 0h1m1 0h3m1 0h2m1 0h4m7 0h3m1 0h2m1 0h2m1 0h1m1 0h2m6 0h2M0 31.5h6m4 0h5m1 0h2m2 0h1m2 0h1m2 0h1m1 0h1m2 0h2m1 0h1m1 0h4m2 0h3m1 0h1M3 32.5h5m4 0h7m2 0h3m1 0h1m4 0h5m1 0h1m1 0h1m1 0h3m2 0h3M0 33.5h2m2 0h1m3 0h3m2 0h3m1 0h2m2 0h1m2 0h1m2 0h2m3 0h2m2 0h1m4 0h3m3 0h1M1 34.5h1m2 0h1m1 0h4m4 0h3m1 0h1m4 0h4m2 0h1m1 0h4m2 0h1m1 0h1m1 0h1m3 0h1m1 0h1M0 35.5h6m1 0h4m2 0h4m5 0h1m2 0h4m1 0h1m3 0h1m1 0h1m3 0h5m1 0h1m1 0h1M0 36.5h1m1 0h2m2 0h2m4 0h1m1 0h5m1 0h3m2 0h1m3 0h1m3 0h2m2 0h2m5 0h2M0 37.5h1m1 0h1m1 0h2m1 0h2m1 0h1m2 0h1m1 0h2m2 0h2m5 0h3m2 0h4m2 0h2m1 0h1m2 0h2m2 0h2M1 38.5h1m3 0h3m3 0h3m1 0h3m1 0h2m2 0h2m9 0h5m1 0h3m1 0h1M1 39.5h3m6 0h1m2 0h1m10 0h1m1 0h1m1 0h2m9 0h1m2 0h1m1 0h1m2 0h2M0 40.5h3m3 0h3m1 0h1m5 0h1m5 0h6m2 0h4m3 0h2m1 0h5m1 0h1m1 0h1M8 41.5h1m1 0h1m1 0h2m3 0h1m1 0h1m1 0h2m3 0h2m1 0h1m3 0h2m1 0h1m2 0h2m3 0h2m1 0h2M0 42.5h7m1 0h1m1 0h2m2 0h1m1 0h1m1 0h1m1 0h1m1 0h1m1 0h1m1 0h3m2 0h3m2 0h5m1 0h1m1 0h1m3 0h1M0 43.5h1m5 0h1m1 0h4m1 0h1m1 0h2m1 0h3m1 0h1m3 0h1m5 0h1m2 0h2m2 0h2m3 0h1m2 0h1M0 44.5h1m1 0h3m1 0h1m2 0h1m2 0h4m1 0h3m1 0h8m2 0h1m3 0h1m2 0h1m1 0h5m1 0h1m1 0h1M0 45.5h1m1 0h3m1 0h1m1 0h2m1 0h7m4 0h3m1 0h1m1 0h1m1 0h1m2 0h2m1 0h2m2 0h2m2 0h1m1 0h1m1 0h1M0 46.5h1m1 0h3m1 0h1m1 0h2m1 0h2m4 0h4m1 0h1m2 0h1m3 0h1m1 0h3m1 0h1m1 0h1m2 0h2m1 0h1m1 0h1m1 0h1M0 47.5h1m5 0h1m2 0h2m1 0h2m2 0h3m2 0h3m1 0h1m3 0h1m2 0h1m1 0h4m1 0h2m5 0h1m1 0h1M0 48.5h7m1 0h2m2 0h3m1 0h1m3 0h2m1 0h2m1 0h2m1 0h2m1 0h2m3 0h1m3 0h1m1 0h2m3 0h1"/></svg>
